<?xml version="1.0" encoding="utf-8"?>
<!-- Generator: Adobe Illustrator 23.0.5, SVG Export Plug-In . SVG Version: 6.00 Build 0)  -->
<svg version="1.1" xmlns="http://www.w3.org/2000/svg" xmlns:xlink="http://www.w3.org/1999/xlink" x="0px" y="0px"
	 viewBox="0 0 1920 1080" style="enable-background:new 0 0 1920 1080;" xml:space="preserve">
<style type="text/css">
	.st0{display:none;}
	.st1{display:inline;fill:url(#SVGID_1_);}
	.st2{display:inline;fill:url(#SVGID_2_);}
	.st3{display:inline;fill:url(#SVGID_3_);}
	.st4{display:inline;fill:url(#SVGID_4_);}
	.st5{display:inline;fill:#0C0C0C;}
	.st6{display:inline;}
	.st7{fill:#FFFFFF;}
	.st8{fill:#4D4D4F;}
	.st9{fill:url(#SVGID_5_);}
	.st10{fill:url(#SVGID_6_);}
	.st11{fill:url(#SVGID_7_);}
	.st12{fill:url(#SVGID_8_);}
	.st13{fill:url(#SVGID_9_);}
	.st14{fill:url(#SVGID_10_);}
	.st15{fill:url(#SVGID_11_);}
	.st16{fill:url(#SVGID_12_);}
</style>
<g id="Fundo_azul_1" class="st0">
	<linearGradient id="SVGID_1_" gradientUnits="userSpaceOnUse" x1="0" y1="540" x2="1920" y2="540">
		<stop  offset="0" style="stop-color:#7E52A0"/>
		<stop  offset="1" style="stop-color:#40B8E9"/>
	</linearGradient>
	<rect class="st1" width="1920" height="1080"/>
</g>
<g id="Fundo_azul_2" class="st0">
	
		<linearGradient id="SVGID_2_" gradientUnits="userSpaceOnUse" x1="420" y1="540" x2="1500" y2="540" gradientTransform="matrix(0 1 -1 0 1500 -420)">
		<stop  offset="0" style="stop-color:#7E52A0"/>
		<stop  offset="1" style="stop-color:#40B8E9"/>
	</linearGradient>
	<polygon class="st2" points="0,1080 0,0 1920,0 1920,1080 	"/>
</g>
<g id="Fundo_branco_1" class="st0">
	<linearGradient id="SVGID_3_" gradientUnits="userSpaceOnUse" x1="0" y1="540" x2="1920" y2="540">
		<stop  offset="0" style="stop-color:#F2F2F2"/>
		<stop  offset="1" style="stop-color:#F9F9F9"/>
	</linearGradient>
	<rect class="st3" width="1920" height="1080"/>
</g>
<g id="Fundo_branco_2" class="st0">
	
		<linearGradient id="SVGID_4_" gradientUnits="userSpaceOnUse" x1="420" y1="540" x2="1500" y2="540" gradientTransform="matrix(0 1 -1 0 1500 -420)">
		<stop  offset="0" style="stop-color:#F2F2F2"/>
		<stop  offset="1" style="stop-color:#F9F9F9"/>
	</linearGradient>
	<polygon class="st4" points="0,1080 0,0 1920,0 1920,1080 	"/>
</g>
<g id="Fundo_preto" class="st0">
	<rect class="st5" width="1920" height="1080"/>
</g>
<g id="Logo_branca_copy" class="st0">
	<g class="st6">
		<path d="M771.1,673.4h-17.9l-20.8,66.2h15.3l4.1-15.8l3-11.6l1.6-6.1c1.8-6.6,3.6-14.4,5.2-21.4h0.4c1.8,6.9,3.5,14.7,5.4,21.4
			l1.6,6.1l3,11.6l4.1,15.8h15.8L771.1,673.4z"/>
		<path d="M831,673.5h16.3l10.8,29.4c1.3,3.9,2.5,8.2,3.8,12.2h0.4c1.3-4.1,2.5-8.3,3.8-12.2l10.4-29.4h16.3v66.3h-13.6v-24.3
			c0-6.5,1.2-16.1,1.9-22.5h-0.4l-5.4,15.7l-9.4,25.4h-8.3l-9.4-25.4l-5.3-15.7h-0.4c0.7,6.4,1.9,16.1,1.9,22.5v24.3H831V673.5z"/>
		<path d="M932.8,706.2c0-20.9,11.8-32.9,29-32.9c17.2,0,29,12.1,29,32.9c0,20.9-11.8,33.4-29,33.4
			C944.5,739.6,932.8,727.1,932.8,706.2z M976,706.2c0-12.8-5.5-20.4-14.2-20.4c-8.7,0-14.2,7.6-14.2,20.4
			c0,12.8,5.5,20.9,14.2,20.9C970.5,727.1,976,719,976,706.2z"/>
		<path d="M1035.6,673.3h15.4l17.3,33l6.6,14.6h0.4c-0.7-7-1.9-16.3-1.9-24.1v-23.4h14.3v66.3h-15.4l-17.3-33l-6.6-14.5h-0.4
			c0.7,7.3,1.9,16.2,1.9,24v23.5h-14.3V673.3z"/>
		<path d="M1135.3,706.8c0-21.2,14.1-33.5,31.1-33.5c9.3,0,15.9,4,20.2,8.3l-7.6,9.3c-3.2-2.9-6.6-5.1-12.1-5.1
			c-9.8,0-16.8,7.7-16.8,20.5c0,13.1,6,20.8,18,20.8c2.6,0,5.2-0.7,6.8-1.9v-11l0.1-11.8h12.8v29.5c-4.4,4.3-12.2,7.7-21.1,7.7
			C1149,739.6,1135.3,728.4,1135.3,706.8z"/>
		<path d="M1044.5,502.6c-0.1-0.1-0.2-0.2-0.3-0.3c3.2-9.1,4.9-18.8,4.9-28.9c0-42.7-30.7-78.3-71.2-85.9c-0.7-3-2.3-5.7-4.4-7.8
			c-3-3-7.2-4.9-11.8-4.9c-7.8,0-14.4,5.4-16.1,12.7c-40.5,7.6-71.2,43.1-71.2,85.9c0,10.1,1.7,19.9,4.9,28.9c-3.2,3-5.2,7.3-5.2,12
			c0,4.6,1.8,8.8,4.9,11.8c3,3,7.2,4.9,11.8,4.9c1.6,0,3.2-0.2,4.7-0.7c16,18.6,39.8,30.4,66.3,30.4c26.5,0,50.2-11.8,66.3-30.4
			c1.5,0.4,3.1,0.7,4.7,0.7c4.6,0,8.8-1.8,11.8-4.9c3-3,4.9-7.2,4.9-11.8C1049.4,509.8,1047.5,505.6,1044.5,502.6z M973.5,403.2
			c2-2,3.5-4.5,4.3-7.2c36,7.4,63,39.2,63,77.4c0,8.7-1.4,17.1-4,24.9c-1.3-0.3-2.7-0.5-4.1-0.5c-1.5,0-3,0.2-4.4,0.6l-54.9-95.1
			C973.5,403.3,973.5,403.2,973.5,403.2z M961.8,383.1c4.6,0,8.3,3.7,8.3,8.3s-3.7,8.3-8.3,8.3c-4.6,0-8.3-3.7-8.3-8.3
			S957.2,383.1,961.8,383.1z M945.8,396c0.8,2.8,2.3,5.3,4.3,7.2c0,0,0.1,0.1,0.1,0.1l-54.8,95c-1.4-0.4-2.9-0.6-4.5-0.6
			c-1.4,0-2.8,0.2-4.1,0.5c-2.6-7.8-4-16.2-4-24.9C882.7,435.2,909.8,403.3,945.8,396z M890.8,522.7c-4.6,0-8.3-3.7-8.3-8.3
			c0-4.6,3.7-8.3,8.3-8.3c4.6,0,8.3,3.7,8.3,8.3C899.1,518.9,895.4,522.7,890.8,522.7z M1016.7,518.5c0.7,2.8,2.2,5.4,4.2,7.4
			c-14.5,16.2-35.6,26.5-59,26.5c-23.5,0-44.6-10.2-59-26.5c2-2,3.5-4.6,4.2-7.4c0.4-1.3,0.6-2.7,0.6-4.2c0-1.4-0.2-2.8-0.5-4.1
			c-0.7-2.9-2.3-5.5-4.3-7.6c0,0-0.1-0.1-0.1-0.1l54.9-95c1.4,0.4,2.9,0.6,4.4,0.6c1.5,0,3-0.2,4.4-0.6l54.9,95
			c-2.1,2.1-3.7,4.7-4.4,7.7c-0.4,1.3-0.6,2.7-0.6,4.2S1016.3,517.2,1016.7,518.5z M1041.1,514.3c0,4.6-3.7,8.3-8.3,8.3
			s-8.3-3.7-8.3-8.3v0c0-4.6,3.7-8.3,8.3-8.3S1041.1,509.7,1041.1,514.3L1041.1,514.3z"/>
		<path d="M1058.2,340.2H865.4c-20.3,0-36.7,16.4-36.7,36.7v192.8c0,20.3,16.4,36.7,36.7,36.7h192.8c20.3,0,36.7-16.4,36.7-36.7
			V376.9C1094.9,356.7,1078.5,340.2,1058.2,340.2z M1086.6,561.5c0,20.3-16.4,36.7-36.7,36.7H873.7c-20.3,0-36.7-16.4-36.7-36.7
			V385.3c0-20.3,16.4-36.7,36.7-36.7h176.2c20.3,0,36.7,16.4,36.7,36.7V561.5z"/>
	</g>
</g>
<g id="Logo_branca" class="st0">
	<g class="st6">
		<path class="st7" d="M771.1,673.4h-17.9l-20.8,66.2h15.3l4.1-15.8l3-11.6l1.6-6.1c1.8-6.6,3.6-14.4,5.2-21.4h0.4
			c1.8,6.9,3.5,14.7,5.4,21.4l1.6,6.1l3,11.6l4.1,15.8h15.8L771.1,673.4z"/>
		<path class="st7" d="M831,673.5h16.3l10.8,29.4c1.3,3.9,2.5,8.2,3.8,12.2h0.4c1.3-4.1,2.5-8.3,3.8-12.2l10.4-29.4h16.3v66.3h-13.6
			v-24.3c0-6.5,1.2-16.1,1.9-22.5h-0.4l-5.4,15.7l-9.4,25.4h-8.3l-9.4-25.4l-5.3-15.7h-0.4c0.7,6.4,1.9,16.1,1.9,22.5v24.3H831
			V673.5z"/>
		<path class="st7" d="M932.8,706.2c0-20.9,11.8-32.9,29-32.9c17.2,0,29,12.1,29,32.9c0,20.9-11.8,33.4-29,33.4
			C944.5,739.6,932.8,727.1,932.8,706.2z M976,706.2c0-12.8-5.5-20.4-14.2-20.4c-8.7,0-14.2,7.6-14.2,20.4
			c0,12.8,5.5,20.9,14.2,20.9C970.5,727.1,976,719,976,706.2z"/>
		<path class="st7" d="M1035.6,673.3h15.4l17.3,33l6.6,14.6h0.4c-0.7-7-1.9-16.3-1.9-24.1v-23.4h14.3v66.3h-15.4l-17.3-33l-6.6-14.5
			h-0.4c0.7,7.3,1.9,16.2,1.9,24v23.5h-14.3V673.3z"/>
		<path class="st7" d="M1135.3,706.8c0-21.2,14.1-33.5,31.1-33.5c9.3,0,15.9,4,20.2,8.3l-7.6,9.3c-3.2-2.9-6.6-5.1-12.1-5.1
			c-9.8,0-16.8,7.7-16.8,20.5c0,13.1,6,20.8,18,20.8c2.6,0,5.2-0.7,6.8-1.9v-11l0.1-11.8h12.8v29.5c-4.4,4.3-12.2,7.7-21.1,7.7
			C1149,739.6,1135.3,728.4,1135.3,706.8z"/>
		<path class="st7" d="M1044.5,502.6c-0.1-0.1-0.2-0.2-0.3-0.3c3.2-9.1,4.9-18.8,4.9-28.9c0-42.7-30.7-78.3-71.2-85.9
			c-0.7-3-2.3-5.7-4.4-7.8c-3-3-7.2-4.9-11.8-4.9c-7.8,0-14.4,5.4-16.1,12.7c-40.5,7.6-71.2,43.1-71.2,85.9
			c0,10.1,1.7,19.9,4.9,28.9c-3.2,3-5.2,7.3-5.2,12c0,4.6,1.8,8.8,4.9,11.8c3,3,7.2,4.9,11.8,4.9c1.6,0,3.2-0.2,4.7-0.7
			c16,18.6,39.8,30.4,66.3,30.4c26.5,0,50.2-11.8,66.3-30.4c1.5,0.4,3.1,0.7,4.7,0.7c4.6,0,8.8-1.8,11.8-4.9c3-3,4.9-7.2,4.9-11.8
			C1049.4,509.8,1047.5,505.6,1044.5,502.6z M973.5,403.2c2-2,3.5-4.5,4.3-7.2c36,7.4,63,39.2,63,77.4c0,8.7-1.4,17.1-4,24.9
			c-1.3-0.3-2.7-0.5-4.1-0.5c-1.5,0-3,0.2-4.4,0.6l-54.9-95.1C973.5,403.3,973.5,403.2,973.5,403.2z M961.8,383.1
			c4.6,0,8.3,3.7,8.3,8.3s-3.7,8.3-8.3,8.3c-4.6,0-8.3-3.7-8.3-8.3S957.2,383.1,961.8,383.1z M945.8,396c0.8,2.8,2.3,5.3,4.3,7.2
			c0,0,0.1,0.1,0.1,0.1l-54.8,95c-1.4-0.4-2.9-0.6-4.5-0.6c-1.4,0-2.8,0.2-4.1,0.5c-2.6-7.8-4-16.2-4-24.9
			C882.7,435.2,909.8,403.3,945.8,396z M890.8,522.7c-4.6,0-8.3-3.7-8.3-8.3c0-4.6,3.7-8.3,8.3-8.3c4.6,0,8.3,3.7,8.3,8.3
			C899.1,518.9,895.4,522.7,890.8,522.7z M1016.7,518.5c0.7,2.8,2.2,5.4,4.2,7.4c-14.5,16.2-35.6,26.5-59,26.5
			c-23.5,0-44.6-10.2-59-26.5c2-2,3.5-4.6,4.2-7.4c0.4-1.3,0.6-2.7,0.6-4.2c0-1.4-0.2-2.8-0.5-4.1c-0.7-2.9-2.3-5.5-4.3-7.6
			c0,0-0.1-0.1-0.1-0.1l54.9-95c1.4,0.4,2.9,0.6,4.4,0.6c1.5,0,3-0.2,4.4-0.6l54.9,95c-2.1,2.1-3.7,4.7-4.4,7.7
			c-0.4,1.3-0.6,2.7-0.6,4.2S1016.3,517.2,1016.7,518.5z M1041.1,514.3c0,4.6-3.7,8.3-8.3,8.3s-8.3-3.7-8.3-8.3v0
			c0-4.6,3.7-8.3,8.3-8.3S1041.1,509.7,1041.1,514.3L1041.1,514.3z"/>
		<path class="st7" d="M1058.2,340.2H865.4c-20.3,0-36.7,16.4-36.7,36.7v192.8c0,20.3,16.4,36.7,36.7,36.7h192.8
			c20.3,0,36.7-16.4,36.7-36.7V376.9C1094.9,356.7,1078.5,340.2,1058.2,340.2z M1086.6,561.5c0,20.3-16.4,36.7-36.7,36.7H873.7
			c-20.3,0-36.7-16.4-36.7-36.7V385.3c0-20.3,16.4-36.7,36.7-36.7h176.2c20.3,0,36.7,16.4,36.7,36.7V561.5z"/>
	</g>
</g>
<g id="Logo_cor" class="st0">
	<g class="st6">
		<path class="st8" d="M771.1,673.4h-17.9l-20.8,66.2h15.3l4.1-15.8l3-11.6l1.6-6.1c1.8-6.6,3.6-14.4,5.2-21.4h0.4
			c1.8,6.9,3.5,14.7,5.4,21.4l1.6,6.1l3,11.6l4.1,15.8h15.8L771.1,673.4z"/>
		<path class="st8" d="M831,673.5h16.3l10.8,29.4c1.3,3.9,2.5,8.2,3.8,12.2h0.4c1.3-4.1,2.5-8.3,3.8-12.2l10.4-29.4h16.3v66.3h-13.6
			v-24.3c0-6.5,1.2-16.1,1.9-22.5h-0.4l-5.4,15.7l-9.4,25.4h-8.3l-9.4-25.4l-5.3-15.7h-0.4c0.7,6.4,1.9,16.1,1.9,22.5v24.3H831
			V673.5z"/>
		<path class="st8" d="M932.8,706.2c0-20.9,11.8-32.9,29-32.9c17.2,0,29,12.1,29,32.9c0,20.9-11.8,33.4-29,33.4
			C944.5,739.6,932.8,727.1,932.8,706.2z M976,706.2c0-12.8-5.5-20.4-14.2-20.4c-8.7,0-14.2,7.6-14.2,20.4
			c0,12.8,5.5,20.9,14.2,20.9C970.5,727.1,976,719,976,706.2z"/>
		<path class="st8" d="M1035.6,673.3h15.4l17.3,33l6.6,14.6h0.4c-0.7-7-1.9-16.3-1.9-24.1v-23.4h14.3v66.3h-15.4l-17.3-33l-6.6-14.5
			h-0.4c0.7,7.3,1.9,16.2,1.9,24v23.5h-14.3V673.3z"/>
		<path class="st8" d="M1135.3,706.8c0-21.2,14.1-33.5,31.1-33.5c9.3,0,15.9,4,20.2,8.3l-7.6,9.3c-3.2-2.9-6.6-5.1-12.1-5.1
			c-9.8,0-16.8,7.7-16.8,20.5c0,13.1,6,20.8,18,20.8c2.6,0,5.2-0.7,6.8-1.9v-11l0.1-11.8h12.8v29.5c-4.4,4.3-12.2,7.7-21.1,7.7
			C1149,739.6,1135.3,728.4,1135.3,706.8z"/>
		
			<linearGradient id="SVGID_5_" gradientUnits="userSpaceOnUse" x1="874.1934" y1="467.7602" x2="1049.3936" y2="467.7602" gradientTransform="matrix(1 0 0 1 8.558006e-05 -3.271548e-05)">
			<stop  offset="0" style="stop-color:#7E52A0"/>
			<stop  offset="1" style="stop-color:#40B8E9"/>
		</linearGradient>
		<path class="st9" d="M1044.5,502.6c-0.1-0.1-0.2-0.2-0.3-0.3c3.2-9.1,4.9-18.8,4.9-28.9c0-42.7-30.7-78.3-71.2-85.9
			c-0.7-3-2.3-5.7-4.4-7.8c-3-3-7.2-4.9-11.8-4.9c-7.8,0-14.4,5.4-16.1,12.7c-40.5,7.6-71.2,43.1-71.2,85.9
			c0,10.1,1.7,19.9,4.9,28.9c-3.2,3-5.2,7.3-5.2,12c0,4.6,1.8,8.8,4.9,11.8c3,3,7.2,4.9,11.8,4.9c1.6,0,3.2-0.2,4.7-0.7
			c16,18.6,39.8,30.4,66.3,30.4c26.5,0,50.2-11.8,66.3-30.4c1.5,0.4,3.1,0.7,4.7,0.7c4.6,0,8.8-1.8,11.8-4.9c3-3,4.9-7.2,4.9-11.8
			C1049.4,509.8,1047.5,505.6,1044.5,502.6z M973.5,403.2c2-2,3.5-4.5,4.3-7.2c36,7.4,63,39.2,63,77.4c0,8.7-1.4,17.1-4,24.9
			c-1.3-0.3-2.7-0.5-4.1-0.5c-1.5,0-3,0.2-4.4,0.6l-54.9-95.1C973.5,403.3,973.5,403.2,973.5,403.2z M961.8,383.1
			c4.6,0,8.3,3.7,8.3,8.3s-3.7,8.3-8.3,8.3c-4.6,0-8.3-3.7-8.3-8.3S957.2,383.1,961.8,383.1z M945.8,396c0.8,2.8,2.3,5.3,4.3,7.2
			c0,0,0.1,0.1,0.1,0.1l-54.8,95c-1.4-0.4-2.9-0.6-4.5-0.6c-1.4,0-2.8,0.2-4.1,0.5c-2.6-7.8-4-16.2-4-24.9
			C882.7,435.2,909.8,403.3,945.8,396z M890.8,522.7c-4.6,0-8.3-3.7-8.3-8.3c0-4.6,3.7-8.3,8.3-8.3c4.6,0,8.3,3.7,8.3,8.3
			C899.1,518.9,895.4,522.7,890.8,522.7z M1016.7,518.5c0.7,2.8,2.2,5.4,4.2,7.4c-14.5,16.2-35.6,26.5-59,26.5
			c-23.5,0-44.6-10.2-59-26.5c2-2,3.5-4.6,4.2-7.4c0.4-1.3,0.6-2.7,0.6-4.2c0-1.4-0.2-2.8-0.5-4.1c-0.7-2.9-2.3-5.5-4.3-7.6
			c0,0-0.1-0.1-0.1-0.1l54.9-95c1.4,0.4,2.9,0.6,4.4,0.6c1.5,0,3-0.2,4.4-0.6l54.9,95c-2.1,2.1-3.7,4.7-4.4,7.7
			c-0.4,1.3-0.6,2.7-0.6,4.2S1016.3,517.2,1016.7,518.5z M1041.1,514.3c0,4.6-3.7,8.3-8.3,8.3s-8.3-3.7-8.3-8.3v0
			c0-4.6,3.7-8.3,8.3-8.3S1041.1,509.7,1041.1,514.3L1041.1,514.3z"/>
		
			<linearGradient id="SVGID_6_" gradientUnits="userSpaceOnUse" x1="828.6607" y1="473.3643" x2="1094.9032" y2="473.3643" gradientTransform="matrix(1 0 0 1 8.558006e-05 -3.271548e-05)">
			<stop  offset="0" style="stop-color:#7E52A0"/>
			<stop  offset="1" style="stop-color:#40B8E9"/>
		</linearGradient>
		<path class="st10" d="M1058.2,340.2H865.4c-20.3,0-36.7,16.4-36.7,36.7v192.8c0,20.3,16.4,36.7,36.7,36.7h192.8
			c20.3,0,36.7-16.4,36.7-36.7V376.9C1094.9,356.7,1078.5,340.2,1058.2,340.2z M1086.6,561.5c0,20.3-16.4,36.7-36.7,36.7H873.7
			c-20.3,0-36.7-16.4-36.7-36.7V385.3c0-20.3,16.4-36.7,36.7-36.7h176.2c20.3,0,36.7,16.4,36.7,36.7V561.5z"/>
	</g>
</g>
<g id="LOGO_quadrada_branca" class="st0">
	<g class="st6">
		<path class="st7" d="M652.9,756.8h-29.1L590,864.4h24.9l6.7-25.7l4.9-18.9l2.6-9.9c3-10.8,5.9-23.4,8.5-34.7h0.7
			c2.9,11.2,5.7,23.9,8.7,34.7l2.6,9.9l4.9,18.9l6.6,25.7h25.8L652.9,756.8z"/>
		<path class="st7" d="M750.4,757h26.6l17.5,47.8c2.2,6.4,4,13.3,6.2,19.9h0.7c2.2-6.6,4-13.5,6.1-19.9l16.9-47.8h26.6v107.7h-22.2
			v-39.5c0-10.5,2-26.2,3.1-36.6h-0.7l-8.8,25.5l-15.2,41.3h-13.5L778.3,814l-8.6-25.5h-0.7c1.1,10.4,3.1,26.1,3.1,36.6v39.5h-21.8
			V757z"/>
		<path class="st7" d="M915.7,810.1c0-33.9,19.2-53.4,47.2-53.4c28,0,47.2,19.6,47.2,53.4c0,33.9-19.2,54.3-47.2,54.3
			C934.9,864.4,915.7,844,915.7,810.1z M986,810.1c0-20.8-8.9-33.1-23.1-33.1c-14.2,0-23.1,12.3-23.1,33.1s8.9,34,23.1,34
			C977.1,844.1,986,830.9,986,810.1z"/>
		<path class="st7" d="M1082.9,756.7h25l28.1,53.6l10.7,23.7h0.7c-1.1-11.4-3.1-26.5-3.1-39.2v-38h23.2v107.7h-25l-28.1-53.7
			l-10.7-23.5h-0.7c1.1,11.9,3.1,26.3,3.1,39v38.2h-23.2V756.7z"/>
		<path class="st7" d="M1244.9,811.2c0-34.5,22.9-54.4,50.6-54.4c15.1,0,25.8,6.4,32.8,13.5l-12.4,15.1c-5.2-4.7-10.7-8.3-19.6-8.3
			c-16,0-27.3,12.6-27.3,33.4c0,21.4,9.7,33.8,29.2,33.8c4.2,0,8.5-1.1,11-3.1v-17.9l0.1-19.2h20.8v47.9c-7.2,7-19.8,12.6-34.3,12.6
			C1267.1,864.4,1244.9,846.2,1244.9,811.2z"/>
		<path class="st7" d="M1097.4,479.2c-0.2-0.2-0.3-0.3-0.5-0.5c5.2-14.7,8-30.6,8-47.1c0-69.4-49.9-127.2-115.7-139.5
			c-1.2-4.9-3.7-9.3-7.1-12.7c-4.9-4.9-11.6-7.9-19.1-7.9c-12.7,0-23.4,8.8-26.2,20.7c-65.9,12.3-115.7,70.1-115.7,139.5
			c0,16.5,2.8,32.3,8,47.1c-5.2,4.9-8.4,11.8-8.4,19.5c0,7.5,3,14.2,7.9,19.1c4.9,4.9,11.6,7.9,19.1,7.9c2.7,0,5.2-0.4,7.6-1.1
			c26,30.3,64.6,49.5,107.7,49.5c43.1,0,81.6-19.2,107.7-49.4c2.4,0.7,5,1.1,7.6,1.1c7.5,0,14.2-3,19.2-7.9
			c4.9-4.9,7.9-11.6,7.9-19.1C1105.3,490.8,1102.2,484.1,1097.4,479.2z M982,317.7c3.2-3.2,5.6-7.2,6.9-11.8
			c58.5,12,102.4,63.8,102.4,125.8c0,14.1-2.3,27.7-6.5,40.4c-2.1-0.6-4.4-0.9-6.6-0.9c-2.5,0-4.9,0.3-7.2,1l-89.2-154.5
			C981.9,317.8,981.9,317.7,982,317.7z M962.9,285c7.5,0,13.5,6.1,13.5,13.5c0,7.5-6.1,13.5-13.5,13.5s-13.5-6.1-13.5-13.5
			C949.4,291.1,955.4,285,962.9,285z M936.9,305.9c1.3,4.5,3.7,8.6,6.9,11.8c0.1,0.1,0.1,0.1,0.2,0.2l-89.1,154.4
			c-2.3-0.7-4.7-1-7.2-1c-2.3,0-4.5,0.3-6.6,0.9c-4.2-12.7-6.5-26.3-6.5-40.4C834.4,369.7,878.4,317.9,936.9,305.9z M847.6,511.8
			c-7.5,0-13.5-6.1-13.5-13.5c0-7.5,6.1-13.5,13.5-13.5s13.5,6.1,13.5,13.5C861.1,505.8,855,511.8,847.6,511.8z M1052.1,505.1
			c1.1,4.6,3.5,8.7,6.8,12.1c-23.5,26.4-57.8,43-95.9,43c-38.2,0-72.4-16.6-95.9-43.1c3.3-3.3,5.6-7.4,6.8-12
			c0.6-2.2,0.9-4.4,0.9-6.8c0-2.3-0.3-4.6-0.9-6.7c-1.2-4.8-3.7-9-7.1-12.4c0,0-0.1-0.1-0.2-0.1l89.2-154.4c2.3,0.6,4.7,1,7.2,1
			c2.5,0,4.9-0.3,7.2-1l89.2,154.4c-3.5,3.4-6,7.7-7.2,12.5c-0.6,2.2-0.9,4.4-0.9,6.8C1051.2,500.6,1051.5,502.9,1052.1,505.1z
			 M1091.7,498.3c0,7.5-6.1,13.5-13.5,13.5s-13.5-6.1-13.5-13.5v0c0-7.5,6.1-13.5,13.5-13.5S1091.7,490.8,1091.7,498.3L1091.7,498.3
			z"/>
		<path class="st7" d="M1119.6,215.3H806.2c-32.9,0-59.7,26.7-59.7,59.7v313.4c0,32.9,26.7,59.7,59.7,59.7h313.4
			c32.9,0,59.7-26.7,59.7-59.7V275C1179.3,242.1,1152.5,215.3,1119.6,215.3z M1165.7,574.9c0,32.9-26.7,59.7-59.7,59.7H819.7
			c-32.9,0-59.7-26.7-59.7-59.7V288.5c0-32.9,26.7-59.7,59.7-59.7h286.4c32.9,0,59.7,26.7,59.7,59.7V574.9z"/>
	</g>
</g>
<g id="LOGO_quadrada" class="st0">
	<g class="st6">
		<path class="st8" d="M652.9,756.8h-29.1L590,864.4h24.9l6.7-25.7l4.9-18.9l2.6-9.9c3-10.8,5.9-23.4,8.5-34.7h0.7
			c2.9,11.2,5.7,23.9,8.7,34.7l2.6,9.9l4.9,18.9l6.6,25.7h25.8L652.9,756.8z"/>
		<path class="st8" d="M750.4,757h26.6l17.5,47.8c2.2,6.4,4,13.3,6.2,19.9h0.7c2.2-6.6,4-13.5,6.1-19.9l16.9-47.8h26.6v107.7h-22.2
			v-39.5c0-10.5,2-26.2,3.1-36.6h-0.7l-8.8,25.5l-15.2,41.3h-13.5L778.3,814l-8.6-25.5h-0.7c1.1,10.4,3.1,26.1,3.1,36.6v39.5h-21.8
			V757z"/>
		<path class="st8" d="M915.7,810.1c0-33.9,19.2-53.4,47.2-53.4c28,0,47.2,19.6,47.2,53.4c0,33.9-19.2,54.3-47.2,54.3
			C934.9,864.4,915.7,844,915.7,810.1z M986,810.1c0-20.8-8.9-33.1-23.1-33.1c-14.2,0-23.1,12.3-23.1,33.1s8.9,34,23.1,34
			C977.1,844.1,986,830.9,986,810.1z"/>
		<path class="st8" d="M1082.9,756.7h25l28.1,53.6l10.7,23.7h0.7c-1.1-11.4-3.1-26.5-3.1-39.2v-38h23.2v107.7h-25l-28.1-53.7
			l-10.7-23.5h-0.7c1.1,11.9,3.1,26.3,3.1,39v38.2h-23.2V756.7z"/>
		<path class="st8" d="M1244.9,811.2c0-34.5,22.9-54.4,50.6-54.4c15.1,0,25.8,6.4,32.8,13.5l-12.4,15.1c-5.2-4.7-10.7-8.3-19.6-8.3
			c-16,0-27.3,12.6-27.3,33.4c0,21.4,9.7,33.8,29.2,33.8c4.2,0,8.5-1.1,11-3.1v-17.9l0.1-19.2h20.8v47.9c-7.2,7-19.8,12.6-34.3,12.6
			C1267.1,864.4,1244.9,846.2,1244.9,811.2z"/>
		<linearGradient id="SVGID_7_" gradientUnits="userSpaceOnUse" x1="820.5424" y1="422.5919" x2="1105.2874" y2="422.5919">
			<stop  offset="0" style="stop-color:#7E52A0"/>
			<stop  offset="1" style="stop-color:#40B8E9"/>
		</linearGradient>
		<path class="st11" d="M1097.4,479.2c-0.2-0.2-0.3-0.3-0.5-0.5c5.2-14.7,8-30.6,8-47.1c0-69.4-49.9-127.2-115.7-139.5
			c-1.2-4.9-3.7-9.3-7.1-12.7c-4.9-4.9-11.6-7.9-19.1-7.9c-12.7,0-23.4,8.8-26.2,20.7c-65.9,12.3-115.7,70.1-115.7,139.5
			c0,16.5,2.8,32.3,8,47.1c-5.2,4.9-8.4,11.8-8.4,19.5c0,7.5,3,14.2,7.9,19.1c4.9,4.9,11.6,7.9,19.1,7.9c2.7,0,5.2-0.4,7.6-1.1
			c26,30.3,64.6,49.5,107.7,49.5c43.1,0,81.6-19.2,107.7-49.4c2.4,0.7,5,1.1,7.6,1.1c7.5,0,14.2-3,19.2-7.9
			c4.9-4.9,7.9-11.6,7.9-19.1C1105.3,490.8,1102.2,484.1,1097.4,479.2z M982,317.7c3.2-3.2,5.6-7.2,6.9-11.8
			c58.5,12,102.4,63.8,102.4,125.8c0,14.1-2.3,27.7-6.5,40.4c-2.1-0.6-4.4-0.9-6.6-0.9c-2.5,0-4.9,0.3-7.2,1l-89.2-154.5
			C981.9,317.8,981.9,317.7,982,317.7z M962.9,285c7.5,0,13.5,6.1,13.5,13.5c0,7.5-6.1,13.5-13.5,13.5s-13.5-6.1-13.5-13.5
			C949.4,291.1,955.4,285,962.9,285z M936.9,305.9c1.3,4.5,3.7,8.6,6.9,11.8c0.1,0.1,0.1,0.1,0.2,0.2l-89.1,154.4
			c-2.3-0.7-4.7-1-7.2-1c-2.3,0-4.5,0.3-6.6,0.9c-4.2-12.7-6.5-26.3-6.5-40.4C834.4,369.7,878.4,317.9,936.9,305.9z M847.6,511.8
			c-7.5,0-13.5-6.1-13.5-13.5c0-7.5,6.1-13.5,13.5-13.5s13.5,6.1,13.5,13.5C861.1,505.8,855,511.8,847.6,511.8z M1052.1,505.1
			c1.1,4.6,3.5,8.7,6.8,12.1c-23.5,26.4-57.8,43-95.9,43c-38.2,0-72.4-16.6-95.9-43.1c3.3-3.3,5.6-7.4,6.8-12
			c0.6-2.2,0.9-4.4,0.9-6.8c0-2.3-0.3-4.6-0.9-6.7c-1.2-4.8-3.7-9-7.1-12.4c0,0-0.1-0.1-0.2-0.1l89.2-154.4c2.3,0.6,4.7,1,7.2,1
			c2.5,0,4.9-0.3,7.2-1l89.2,154.4c-3.5,3.4-6,7.7-7.2,12.5c-0.6,2.2-0.9,4.4-0.9,6.8C1051.2,500.6,1051.5,502.9,1052.1,505.1z
			 M1091.7,498.3c0,7.5-6.1,13.5-13.5,13.5s-13.5-6.1-13.5-13.5v0c0-7.5,6.1-13.5,13.5-13.5S1091.7,490.8,1091.7,498.3L1091.7,498.3
			z"/>
		<linearGradient id="SVGID_8_" gradientUnits="userSpaceOnUse" x1="746.5401" y1="431.7" x2="1179.2521" y2="431.7">
			<stop  offset="0" style="stop-color:#7E52A0"/>
			<stop  offset="1" style="stop-color:#40B8E9"/>
		</linearGradient>
		<path class="st12" d="M1119.6,215.3H806.2c-32.9,0-59.7,26.7-59.7,59.7v313.4c0,32.9,26.7,59.7,59.7,59.7h313.4
			c32.9,0,59.7-26.7,59.7-59.7V275C1179.3,242.1,1152.5,215.3,1119.6,215.3z M1165.7,574.9c0,32.9-26.7,59.7-59.7,59.7H819.7
			c-32.9,0-59.7-26.7-59.7-59.7V288.5c0-32.9,26.7-59.7,59.7-59.7h286.4c32.9,0,59.7,26.7,59.7,59.7V574.9z"/>
	</g>
</g>
<g id="BIG_LOGO_1" class="st0">
	<g class="st6">
		<path class="st8" d="M910.6,462h-42.9l-49.9,158.7h36.7l9.8-37.8l7.2-27.9l3.8-14.7c4.4-15.9,8.7-34.5,12.5-51.2h1
			c4.3,16.5,8.5,35.3,12.9,51.2l3.8,14.7l7.2,27.9l9.8,37.8h38L910.6,462z"/>
		<path class="st8" d="M1054.2,461.6h39.2l25.8,70.6c3.2,9.4,6,19.5,9.1,29.3h1c3.2-9.8,5.9-19.9,9.1-29.3l25-70.6h39.2v158.8h-32.7
			v-58.3c0-15.5,2.9-38.6,4.6-54h-1l-13,37.6l-22.5,60.8H1118l-22.5-60.8l-12.7-37.6h-1c1.7,15.4,4.6,38.5,4.6,54v58.3h-32.2V461.6z
			"/>
		<path class="st8" d="M1298.1,540.4c0-50,28.3-78.7,69.6-78.7c41.3,0,69.6,28.9,69.6,78.7c0,50-28.3,80.1-69.6,80.1
			C1326.3,620.4,1298.1,590.4,1298.1,540.4z M1401.7,540.4c0-30.7-13.2-48.8-34.1-48.8c-20.9,0-34.1,18.1-34.1,48.8
			s13.2,50.2,34.1,50.2C1388.5,590.5,1401.7,571.1,1401.7,540.4z"/>
		<path class="st8" d="M1544.7,461.6h36.8l41.4,79l15.7,34.9h1c-1.7-16.8-4.6-39-4.6-57.8v-56.1h34.2v158.8h-36.8l-41.4-79.2
			l-15.7-34.7h-1c1.7,17.5,4.6,38.8,4.6,57.5v56.4h-34.2V461.6z"/>
		<path class="st8" d="M1783.4,541.9c0-50.8,33.8-80.3,74.6-80.3c22.2,0,38,9.5,48.3,19.9l-18.3,22.2c-7.6-7-15.8-12.2-28.9-12.2
			c-23.6,0-40.3,18.5-40.3,49.2c0,31.5,14.3,49.8,43.1,49.8c6.1,0,12.5-1.6,16.2-4.6v-26.4l0.2-28.3h30.6v70.6
			c-10.6,10.3-29.2,18.6-50.5,18.6C1816.3,620.4,1783.4,593.5,1783.4,541.9z"/>
		<linearGradient id="SVGID_9_" gradientUnits="userSpaceOnUse" x1="120.7447" y1="526.3386" x2="540.648" y2="526.3386">
			<stop  offset="0" style="stop-color:#7E52A0"/>
			<stop  offset="1" style="stop-color:#40B8E9"/>
		</linearGradient>
		<path class="st13" d="M529,609.8c-0.2-0.2-0.4-0.4-0.7-0.7c7.6-21.7,11.8-45.1,11.8-69.4c0-102.4-73.5-187.6-170.7-205.8
			c-1.7-7.3-5.4-13.7-10.5-18.8c-7.2-7.3-17.2-11.7-28.2-11.7c-18.8,0-34.6,13-38.7,30.5c-97.1,18.2-170.7,103.4-170.7,205.8
			c0,24.3,4.2,47.7,11.8,69.4c-7.6,7.2-12.3,17.4-12.3,28.8c0,11,4.4,21,11.7,28.2c7.2,7.2,17.2,11.7,28.2,11.7
			c3.9,0,7.7-0.6,11.2-1.6c38.4,44.6,95.3,72.9,158.8,72.9c63.5,0,120.4-28.2,158.8-72.9c3.6,1.1,7.4,1.6,11.2,1.6
			c11,0,21-4.4,28.2-11.7c7.2-7.2,11.7-17.2,11.7-28.2C540.6,627,536.2,617,529,609.8z M358.9,371.6c4.7-4.7,8.3-10.7,10.2-17.3
			c86.2,17.7,151.1,94,151.1,185.5c0,20.8-3.4,40.9-9.6,59.6c-3.2-0.8-6.4-1.3-9.8-1.3c-3.7,0-7.3,0.5-10.6,1.5L358.6,371.8
			C358.7,371.8,358.7,371.7,358.9,371.6z M330.7,323.5c11,0,19.9,8.9,19.9,19.9s-8.9,19.9-19.9,19.9c-11,0-19.9-8.9-19.9-19.9
			S319.7,323.5,330.7,323.5z M292.3,354.3c1.9,6.6,5.5,12.6,10.2,17.3c0.1,0.1,0.2,0.2,0.3,0.2L171.3,599.6c-3.4-1-7-1.5-10.7-1.5
			c-3.4,0-6.6,0.4-9.8,1.3c-6.2-18.7-9.6-38.8-9.6-59.6C141.2,448.3,206.1,371.9,292.3,354.3z M160.6,657.9
			c-11,0-19.9-8.9-19.9-19.9s8.9-19.9,19.9-19.9c11,0,19.9,8.9,19.9,19.9S171.6,657.9,160.6,657.9z M462.2,648
			c1.7,6.8,5.2,12.9,10,17.8c-34.7,38.9-85.2,63.5-141.5,63.5c-56.3,0-106.8-24.5-141.5-63.5c4.8-4.9,8.3-10.9,10-17.7
			c0.9-3.2,1.3-6.5,1.3-10c0-3.4-0.4-6.8-1.3-9.9c-1.8-7-5.4-13.3-10.4-18.3c-0.1-0.1-0.2-0.2-0.2-0.2l131.5-227.8
			c3.4,0.9,6.9,1.4,10.6,1.4c3.7,0,7.2-0.5,10.6-1.4l131.5,227.8c-5.1,5-8.8,11.4-10.6,18.4c-0.9,3.2-1.3,6.5-1.3,10
			C460.9,641.4,461.3,644.8,462.2,648z M520.7,638c0,11-8.9,19.9-19.9,19.9s-19.9-8.9-19.9-19.9v0c0-11,8.9-19.9,19.9-19.9
			S520.7,627,520.7,638L520.7,638z"/>
		<linearGradient id="SVGID_10_" gradientUnits="userSpaceOnUse" x1="11.6163" y1="539.77" x2="649.7211" y2="539.77">
			<stop  offset="0" style="stop-color:#7E52A0"/>
			<stop  offset="1" style="stop-color:#40B8E9"/>
		</linearGradient>
		<path class="st14" d="M561.8,220.7H99.6c-48.6,0-88,39.4-88,88v462.2c0,48.6,39.4,88,88,88h462.2c48.6,0,88-39.4,88-88V308.7
			C649.7,260.1,610.3,220.7,561.8,220.7z M629.8,750.9c0,48.6-39.4,88-88,88H119.5c-48.6,0-88-39.4-88-88V328.6
			c0-48.6,39.4-88,88-88h422.3c48.6,0,88,39.4,88,88V750.9z"/>
	</g>
</g>
<g id="BIG_LOGO_2" class="st0">
	<g class="st6">
		<path class="st7" d="M910.3,462.3h-42.9L817.5,621h36.7l9.8-37.8l7.2-27.9l3.8-14.7c4.4-15.9,8.7-34.5,12.5-51.2h1
			c4.3,16.5,8.5,35.3,12.9,51.2l3.8,14.7l7.2,27.9l9.8,37.8h38L910.3,462.3z"/>
		<path class="st7" d="M1053.9,461.9h39.2l25.8,70.5c3.2,9.4,6,19.5,9.1,29.3h1c3.2-9.8,5.9-19.9,9.1-29.3l25-70.5h39.2v158.8h-32.7
			v-58.3c0-15.5,2.9-38.6,4.6-53.9h-1l-13,37.6l-22.4,60.8h-19.9l-22.5-60.8l-12.7-37.6h-1c1.7,15.4,4.6,38.5,4.6,53.9v58.3h-32.2
			V461.9z"/>
		<path class="st7" d="M1297.7,540.6c0-50,28.3-78.7,69.6-78.7c41.3,0,69.6,28.9,69.6,78.7c0,50-28.3,80.1-69.6,80.1
			C1326,620.6,1297.7,590.6,1297.7,540.6z M1401.3,540.6c0-30.7-13.2-48.8-34.1-48.8c-20.9,0-34.1,18.1-34.1,48.8
			c0,30.7,13.2,50.2,34.1,50.2C1388.2,590.8,1401.3,571.3,1401.3,540.6z"/>
		<path class="st7" d="M1544.3,461.9h36.8l41.4,79l15.7,34.9h1c-1.7-16.8-4.6-39-4.6-57.8v-56.1h34.2v158.8H1632l-41.4-79.2
			l-15.7-34.7h-1c1.7,17.5,4.6,38.8,4.6,57.5v56.3h-34.2V461.9z"/>
		<path class="st7" d="M1783,542.1c0-50.8,33.8-80.3,74.6-80.3c22.2,0,38,9.5,48.3,19.9l-18.3,22.2c-7.6-7-15.8-12.2-28.9-12.2
			c-23.6,0-40.3,18.5-40.3,49.2c0,31.5,14.3,49.8,43.1,49.8c6.1,0,12.5-1.6,16.2-4.6v-26.4l0.2-28.3h30.6v70.6
			c-10.6,10.3-29.2,18.6-50.5,18.6C1815.8,620.6,1783,593.7,1783,542.1z"/>
		<path class="st7" d="M528.7,610c-0.2-0.2-0.4-0.4-0.7-0.7c7.6-21.7,11.8-45.1,11.8-69.4c0-102.4-73.5-187.6-170.6-205.7
			c-1.7-7.3-5.4-13.7-10.5-18.8c-7.2-7.3-17.2-11.7-28.2-11.7c-18.8,0-34.5,13-38.7,30.5C194.7,352.4,121.1,437.6,121.1,540
			c0,24.3,4.2,47.7,11.8,69.4c-7.6,7.2-12.3,17.4-12.3,28.8c0,11,4.4,21,11.7,28.2c7.2,7.2,17.2,11.7,28.2,11.7
			c3.9,0,7.7-0.6,11.2-1.6C210,721,267,749.3,330.5,749.3c63.5,0,120.4-28.2,158.8-72.9c3.6,1.1,7.4,1.6,11.2,1.6
			c11,0,21-4.4,28.2-11.7c7.2-7.2,11.7-17.2,11.7-28.2C540.4,627.2,535.9,617.2,528.7,610z M358.6,371.9c4.7-4.7,8.3-10.7,10.2-17.3
			c86.2,17.7,151,94,151,185.5c0,20.8-3.4,40.9-9.6,59.6c-3.2-0.8-6.4-1.3-9.8-1.3c-3.7,0-7.3,0.5-10.6,1.5L358.4,372.1
			C358.5,372,358.5,372,358.6,371.9z M330.5,323.7c11,0,19.9,8.9,19.9,19.9s-8.9,19.9-19.9,19.9c-11,0-19.9-8.9-19.9-19.9
			S319.5,323.7,330.5,323.7z M292.1,354.5c1.9,6.6,5.5,12.6,10.2,17.3c0.1,0.1,0.2,0.2,0.3,0.2L171.1,599.8c-3.4-1-7-1.5-10.7-1.5
			c-3.4,0-6.6,0.4-9.8,1.3c-6.2-18.7-9.6-38.8-9.6-59.6C141.1,448.5,205.9,372.2,292.1,354.5z M160.4,658.1
			c-11,0-19.9-8.9-19.9-19.9c0-11,8.9-19.9,19.9-19.9c11,0,19.9,8.9,19.9,19.9C180.4,649.2,171.4,658.1,160.4,658.1z M462,648.2
			c1.7,6.8,5.2,12.9,10,17.8c-34.7,38.9-85.2,63.4-141.5,63.4c-56.3,0-106.8-24.5-141.5-63.5c4.8-4.9,8.3-10.9,10-17.7
			c0.9-3.2,1.3-6.5,1.3-10c0-3.4-0.4-6.8-1.3-9.9c-1.8-7-5.4-13.3-10.4-18.3c-0.1-0.1-0.2-0.2-0.2-0.2l131.5-227.7
			c3.4,0.9,6.9,1.4,10.6,1.4c3.7,0,7.2-0.5,10.6-1.4l131.5,227.7c-5.1,5-8.8,11.3-10.6,18.4c-0.9,3.2-1.3,6.5-1.3,10
			S461.1,645,462,648.2z M520.4,638.2c0,11-8.9,19.9-19.9,19.9c-11,0-19.9-8.9-19.9-19.9v0c0-11,8.9-19.9,19.9-19.9
			C511.5,618.3,520.4,627.2,520.4,638.2L520.4,638.2z"/>
		<path class="st7" d="M561.5,221H99.4c-48.6,0-88,39.4-88,88V771c0,48.6,39.4,88,88,88h462.1c48.6,0,88-39.4,88-88V309
			C649.5,260.4,610.1,221,561.5,221z M629.5,751.1c0,48.6-39.4,88-88,88H119.4c-48.6,0-88-39.4-88-88V328.9c0-48.6,39.4-88,88-88
			h422.2c48.6,0,88,39.4,88,88V751.1z"/>
	</g>
</g>
<g id="BIG_LOGO_3">
	<g>
		<path class="st8" d="M505.2,861h-43.1L412,1020.4h36.8l9.9-38l7.3-28l3.8-14.7c4.4-16,8.7-34.6,12.6-51.4h1
			c4.3,16.6,8.5,35.4,12.9,51.4l3.8,14.7l7.3,28l9.8,38h38.1L505.2,861z"/>
		<path class="st8" d="M649.5,861.3h39.3l25.9,70.9c3.2,9.4,6,19.6,9.2,29.4h1c3.2-9.8,5.9-20,9.1-29.4l25.1-70.9h39.3v159.5h-32.8
			v-58.5c0-15.5,2.9-38.8,4.6-54.2h-1l-13.1,37.7l-22.6,61.1h-20L691,945.9l-12.7-37.7h-1c1.7,15.4,4.6,38.6,4.6,54.2v58.5h-32.3
			V861.3z"/>
		<path class="st8" d="M894.4,940.1c0-50.3,28.4-79.1,69.9-79.1c41.5,0,69.9,29,69.9,79.1c0,50.3-28.4,80.4-69.9,80.4
			C922.8,1020.5,894.4,990.3,894.4,940.1z M998.5,940.1c0-30.8-13.2-49.1-34.2-49.1c-21,0-34.2,18.2-34.2,49.1s13.2,50.4,34.2,50.4
			C985.3,990.5,998.5,970.9,998.5,940.1z"/>
		<path class="st8" d="M1142.1,861h37l41.6,79.3l15.8,35h1c-1.7-16.9-4.6-39.2-4.6-58V861h34.4v159.5h-37l-41.6-79.5l-15.8-34.8h-1
			c1.7,17.6,4.6,39,4.6,57.8v56.6h-34.4V861z"/>
		<path class="st8" d="M1381.9,941.6c0-51,33.9-80.6,75-80.6c22.3,0,38.2,9.5,48.5,20l-18.3,22.3c-7.6-7-15.9-12.2-29-12.2
			c-23.7,0-40.5,18.6-40.5,49.4c0,31.6,14.3,50,43.3,50c6.2,0,12.5-1.6,16.3-4.6v-26.6l0.2-28.4h30.7v70.9
			c-10.6,10.4-29.3,18.6-50.8,18.6C1414.9,1020.5,1381.9,993.4,1381.9,941.6z"/>
		<linearGradient id="SVGID_11_" gradientUnits="userSpaceOnUse" x1="753.452" y1="366.1091" x2="1175.1824" y2="366.1091">
			<stop  offset="0" style="stop-color:#7E52A0"/>
			<stop  offset="1" style="stop-color:#40B8E9"/>
		</linearGradient>
		<path class="st15" d="M1163.4,449.9c-0.2-0.2-0.4-0.4-0.7-0.7c7.7-21.8,11.8-45.3,11.8-69.7c0-102.8-73.9-188.4-171.4-206.7
			c-1.7-7.3-5.5-13.7-10.6-18.9c-7.2-7.3-17.2-11.7-28.3-11.7c-18.9,0-34.7,13-38.9,30.6C827.9,191.2,754,276.8,754,379.6
			c0,24.4,4.2,47.9,11.8,69.7c-7.7,7.2-12.4,17.5-12.4,28.9c0,11.1,4.4,21.1,11.7,28.3c7.2,7.2,17.2,11.7,28.3,11.7
			c3.9,0,7.7-0.6,11.3-1.6c38.5,44.8,95.7,73.2,159.5,73.2c63.8,0,120.9-28.4,159.5-73.2c3.6,1.1,7.4,1.6,11.3,1.6
			c11.1,0,21.1-4.4,28.4-11.7c7.2-7.2,11.7-17.2,11.7-28.3C1175.2,467.2,1170.7,457.2,1163.4,449.9z M992.6,210.7
			c4.7-4.7,8.3-10.7,10.2-17.4c86.6,17.7,151.7,94.4,151.7,186.3c0,20.9-3.4,41-9.6,59.9c-3.2-0.8-6.5-1.3-9.8-1.3
			c-3.7,0-7.3,0.5-10.7,1.5L992.3,210.9C992.4,210.9,992.5,210.8,992.6,210.7z M964.3,162.3c11.1,0,20,9,20,20s-9,20-20,20
			s-20-9-20-20S953.2,162.3,964.3,162.3z M925.7,193.3c1.9,6.7,5.5,12.7,10.2,17.4c0.1,0.1,0.2,0.2,0.3,0.2l-132,228.7
			c-3.4-1-7-1.5-10.7-1.5c-3.4,0-6.7,0.4-9.8,1.3c-6.2-18.8-9.6-38.9-9.6-59.8C774,287.7,839.2,211,925.7,193.3z M793.5,498.2
			c-11.1,0-20-9-20-20c0-11.1,9-20,20-20s20,9,20,20C813.5,489.3,804.6,498.2,793.5,498.2z M1096.4,488.3c1.7,6.8,5.2,13,10,17.9
			c-34.8,39.1-85.6,63.7-142.1,63.7c-56.5,0-107.3-24.6-142.1-63.8c4.8-4.9,8.3-11,10-17.8c0.9-3.2,1.3-6.6,1.3-10.1
			c0-3.4-0.4-6.8-1.3-10c-1.8-7.1-5.5-13.3-10.5-18.4c-0.1-0.1-0.2-0.2-0.2-0.2L953.7,221c3.4,0.9,7,1.4,10.6,1.4
			c3.7,0,7.2-0.5,10.6-1.4L1107,449.7c-5.1,5-8.8,11.4-10.6,18.5c-0.9,3.2-1.3,6.6-1.3,10S1095.5,485,1096.4,488.3z M1155.1,478.2
			c0,11.1-9,20-20,20s-20-9-20-20v0c0-11.1,9-20,20-20S1155.1,467.2,1155.1,478.2L1155.1,478.2z"/>
		<linearGradient id="SVGID_12_" gradientUnits="userSpaceOnUse" x1="643.8486" y1="379.599" x2="1284.7301" y2="379.599">
			<stop  offset="0" style="stop-color:#7E52A0"/>
			<stop  offset="1" style="stop-color:#40B8E9"/>
		</linearGradient>
		<path class="st16" d="M1196.4,59.2H732.2c-48.8,0-88.4,39.6-88.4,88.4v464.2c0,48.8,39.6,88.4,88.4,88.4h464.2
			c48.8,0,88.4-39.6,88.4-88.4V147.5C1284.7,98.7,1245.2,59.2,1196.4,59.2z M1264.7,591.7c0,48.8-39.6,88.4-88.4,88.4H752.2
			c-48.8,0-88.4-39.6-88.4-88.4V167.5c0-48.8,39.6-88.4,88.4-88.4h424.1c48.8,0,88.4,39.6,88.4,88.4V591.7z"/>
	</g>
</g>
<g id="BIG_LOGO_4" class="st0">
	<g class="st6">
		<path class="st7" d="M505.1,861.1h-43.1l-50.1,159.4h36.8l9.9-38l7.3-28l3.8-14.7c4.4-16,8.7-34.6,12.6-51.4h1
			c4.3,16.6,8.5,35.5,12.9,51.4l3.8,14.7l7.3,28l9.8,38h38.2L505.1,861.1z"/>
		<path class="st7" d="M649.4,861.4h39.4l25.9,70.9c3.2,9.4,6,19.6,9.2,29.5h1c3.2-9.8,5.9-20,9.1-29.5l25.1-70.9h39.4V1021h-32.8
			v-58.6c0-15.6,2.9-38.8,4.6-54.2h-1L756,946l-22.6,61.1h-20L690.9,946l-12.7-37.8h-1c1.7,15.4,4.6,38.7,4.6,54.2v58.6h-32.4V861.4
			z"/>
		<path class="st7" d="M894.4,940.2c0-50.3,28.4-79.1,69.9-79.1c41.5,0,69.9,29,69.9,79.1c0,50.3-28.4,80.4-69.9,80.4
			C922.8,1020.6,894.4,990.5,894.4,940.2z M998.5,940.2c0-30.9-13.2-49.1-34.2-49.1c-21,0-34.2,18.2-34.2,49.1s13.2,50.4,34.2,50.4
			C985.3,990.6,998.5,971.1,998.5,940.2z"/>
		<path class="st7" d="M1142.1,861.1h37l41.6,79.3l15.8,35.1h1c-1.7-16.9-4.6-39.2-4.6-58v-56.4h34.4v159.6h-37l-41.6-79.6
			l-15.8-34.9h-1c1.7,17.6,4.6,39,4.6,57.8v56.6h-34.4V861.1z"/>
		<path class="st7" d="M1382,941.7c0-51.1,33.9-80.7,75-80.7c22.3,0,38.2,9.5,48.6,20l-18.3,22.3c-7.6-7-15.9-12.3-29-12.3
			c-23.7,0-40.5,18.6-40.5,49.5c0,31.6,14.3,50,43.3,50c6.2,0,12.5-1.6,16.3-4.6v-26.6l0.2-28.4h30.7v70.9
			c-10.6,10.4-29.3,18.6-50.8,18.6C1415,1020.6,1382,993.6,1382,941.7z"/>
		<path class="st7" d="M1163.5,449.9c-0.2-0.2-0.4-0.4-0.7-0.7c7.7-21.8,11.8-45.3,11.8-69.7c0-102.9-73.9-188.5-171.5-206.7
			c-1.7-7.3-5.5-13.7-10.6-18.9c-7.2-7.3-17.2-11.7-28.3-11.7c-18.9,0-34.7,13-38.9,30.6c-97.6,18.2-171.5,103.9-171.5,206.7
			c0,24.4,4.2,47.9,11.8,69.7c-7.7,7.2-12.4,17.5-12.4,28.9c0,11.1,4.5,21.1,11.7,28.3c7.2,7.2,17.2,11.7,28.3,11.7
			c3.9,0,7.7-0.6,11.3-1.6c38.6,44.8,95.7,73.3,159.6,73.3c63.8,0,120.9-28.4,159.6-73.2c3.6,1.1,7.4,1.6,11.3,1.6
			c11.1,0,21.1-4.5,28.4-11.7c7.2-7.2,11.7-17.2,11.7-28.3C1175.3,467.2,1170.7,457.2,1163.5,449.9z M992.6,210.6
			c4.7-4.7,8.3-10.7,10.2-17.4c86.6,17.7,151.8,94.5,151.8,186.4c0,20.9-3.4,41.1-9.6,59.9c-3.2-0.8-6.5-1.3-9.8-1.3
			c-3.7,0-7.3,0.5-10.7,1.5L992.3,210.8C992.4,210.8,992.5,210.7,992.6,210.6z M964.3,162.2c11.1,0,20,9,20,20s-9,20-20,20
			s-20-9-20-20S953.2,162.2,964.3,162.2z M925.7,193.2c1.9,6.7,5.5,12.7,10.2,17.4c0.1,0.1,0.2,0.2,0.3,0.2L804.2,439.6
			c-3.4-1-7-1.5-10.7-1.5c-3.4,0-6.7,0.4-9.8,1.3c-6.2-18.8-9.6-38.9-9.6-59.9C774,287.6,839.1,210.9,925.7,193.2z M793.4,498.2
			c-11.1,0-20-9-20-20s9-20,20-20s20,9,20,20S804.5,498.2,793.4,498.2z M1096.4,488.3c1.7,6.8,5.2,13,10,17.9
			c-34.8,39.1-85.6,63.8-142.1,63.8c-56.5,0-107.3-24.6-142.1-63.8c4.8-4.9,8.3-11,10-17.8c0.9-3.2,1.3-6.6,1.3-10.1
			c0-3.4-0.4-6.8-1.3-10c-1.8-7.1-5.5-13.4-10.5-18.4c-0.1-0.1-0.2-0.2-0.2-0.2l132.1-228.8c3.4,0.9,7,1.4,10.6,1.4
			c3.7,0,7.2-0.5,10.6-1.4L1107,449.7c-5.1,5-8.8,11.4-10.6,18.5c-0.9,3.2-1.3,6.6-1.3,10S1095.5,485,1096.4,488.3z M1155.2,478.2
			c0,11.1-9,20-20,20s-20-9-20-20v0c0-11.1,9-20,20-20S1155.2,467.2,1155.2,478.2L1155.2,478.2z"/>
		<path class="st7" d="M1196.5,59H732.1c-48.8,0-88.4,39.6-88.4,88.4v464.3c0,48.8,39.6,88.4,88.4,88.4h464.3
			c48.8,0,88.4-39.6,88.4-88.4V147.4C1284.8,98.6,1245.3,59,1196.5,59z M1264.8,591.7c0,48.8-39.6,88.4-88.4,88.4H752.2
			c-48.8,0-88.4-39.6-88.4-88.4V167.4c0-48.8,39.6-88.4,88.4-88.4h424.3c48.8,0,88.4,39.6,88.4,88.4V591.7z"/>
	</g>
</g>
</svg>
